<svg width="14" height="14" viewBox="0 0 14 14" fill="none" xmlns="http://www.w3.org/2000/svg">
<g id="align-vertical-center-02">
<g id="Icon">
<path d="M5.8335 10.5V3.5C5.8335 2.9564 5.8335 2.6846 5.74469 2.4702C5.62628 2.18434 5.39916 1.95722 5.11329 1.83881C4.89889 1.75 4.62709 1.75 4.0835 1.75C3.5399 1.75 3.2681 1.75 3.0537 1.83881C2.76783 1.95722 2.54071 2.18434 2.4223 2.4702C2.3335 2.6846 2.3335 2.9564 2.3335 3.5V10.5C2.3335 11.0436 2.3335 11.3154 2.4223 11.5298C2.54071 11.8157 2.76783 12.0428 3.0537 12.1612C3.2681 12.25 3.5399 12.25 4.0835 12.25C4.62709 12.25 4.89889 12.25 5.11329 12.1612C5.39916 12.0428 5.62628 11.8157 5.74469 11.5298C5.8335 11.3154 5.8335 11.0436 5.8335 10.5Z" stroke="#C4D3ED" stroke-width="1.4" stroke-linecap="round" stroke-linejoin="round"/>
<path d="M11.6668 9.33333V4.66667C11.6668 4.12307 11.6668 3.85127 11.578 3.63687C11.4596 3.351 11.2325 3.12388 10.9466 3.00547C10.7322 2.91667 10.4604 2.91667 9.91683 2.91667C9.37323 2.91667 9.10143 2.91667 8.88703 3.00547C8.60117 3.12388 8.37405 3.351 8.25564 3.63687C8.16683 3.85127 8.16683 4.12307 8.16683 4.66667V9.33333C8.16683 9.87693 8.16683 10.1487 8.25564 10.3631C8.37405 10.649 8.60117 10.8761 8.88703 10.9945C9.10143 11.0833 9.37323 11.0833 9.91683 11.0833C10.4604 11.0833 10.7322 11.0833 10.9466 10.9945C11.2325 10.8761 11.4596 10.649 11.578 10.3631C11.6668 10.1487 11.6668 9.87693 11.6668 9.33333Z" stroke="#C4D3ED" stroke-width="1.4" stroke-linecap="round" stroke-linejoin="round"/>
</g>
</g>
</svg>
