<svg width="14" height="14" viewBox="0 0 14 14" fill="none" xmlns="http://www.w3.org/2000/svg">
<g id="align-top-arrow-02">
<g id="Icon">
<path d="M5.8335 10.5V3.5C5.8335 2.9564 5.8335 2.6846 5.74469 2.4702C5.62628 2.18434 5.39916 1.95722 5.11329 1.83881C4.89889 1.75 4.62709 1.75 4.0835 1.75C3.5399 1.75 3.2681 1.75 3.0537 1.83881C2.76783 1.95722 2.54071 2.18434 2.4223 2.4702C2.3335 2.6846 2.3335 2.9564 2.3335 3.5V10.5C2.3335 11.0436 2.3335 11.3154 2.4223 11.5298C2.54071 11.8157 2.76783 12.0428 3.0537 12.1612C3.2681 12.25 3.5399 12.25 4.0835 12.25C4.62709 12.25 4.89889 12.25 5.11329 12.1612C5.39916 12.0428 5.62628 11.8157 5.74469 11.5298C5.8335 11.3154 5.8335 11.0436 5.8335 10.5Z" stroke="#C4D3ED" stroke-width="1.4" stroke-linecap="round" stroke-linejoin="round"/>
<path d="M11.6668 8.16667V3.5C11.6668 2.9564 11.6668 2.6846 11.578 2.4702C11.4596 2.18434 11.2325 1.95722 10.9466 1.83881C10.7322 1.75 10.4604 1.75 9.91683 1.75C9.37323 1.75 9.10143 1.75 8.88703 1.83881C8.60117 1.95722 8.37405 2.18434 8.25564 2.4702C8.16683 2.6846 8.16683 2.9564 8.16683 3.5V8.16667C8.16683 8.71027 8.16683 8.98206 8.25564 9.19646C8.37405 9.48233 8.60117 9.70945 8.88703 9.82786C9.10143 9.91667 9.37323 9.91667 9.91683 9.91667C10.4604 9.91667 10.7322 9.91667 10.9466 9.82786C11.2325 9.70945 11.4596 9.48233 11.578 9.19646C11.6668 8.98206 11.6668 8.71026 11.6668 8.16667Z" stroke="#C4D3ED" stroke-width="1.4" stroke-linecap="round" stroke-linejoin="round"/>
</g>
</g>
</svg>
