<svg width="14" height="14" viewBox="0 0 14 14" fill="none" xmlns="http://www.w3.org/2000/svg">
<g id="align-right-02">
<g id="Icon">
<path d="M10.5 5.83337C11.0436 5.83337 11.3154 5.83337 11.5298 5.74457C11.8157 5.62616 12.0428 5.39904 12.1612 5.11317C12.25 4.89877 12.25 4.62697 12.25 4.08337C12.25 3.53978 12.25 3.26798 12.1612 3.05358C12.0428 2.76771 11.8157 2.54059 11.5298 2.42218C11.3154 2.33337 11.0436 2.33337 10.5 2.33337L5.83333 2.33337C5.28973 2.33337 5.01794 2.33337 4.80354 2.42218C4.51767 2.54059 4.29055 2.76771 4.17214 3.05358C4.08333 3.26798 4.08333 3.53978 4.08333 4.08337C4.08333 4.62697 4.08333 4.89877 4.17214 5.11317C4.29055 5.39904 4.51767 5.62616 4.80354 5.74457C5.01794 5.83337 5.28973 5.83337 5.83333 5.83337L10.5 5.83337Z" stroke="#C4D3ED" stroke-width="1.4" stroke-linecap="round" stroke-linejoin="round"/>
<path d="M10.5 11.6667C11.0436 11.6667 11.3154 11.6667 11.5298 11.5779C11.8157 11.4595 12.0428 11.2324 12.1612 10.9465C12.25 10.7321 12.25 10.4603 12.25 9.91671C12.25 9.37311 12.25 9.10131 12.1612 8.88691C12.0428 8.60104 11.8157 8.37392 11.5298 8.25551C11.3154 8.16671 11.0436 8.16671 10.5 8.16671H3.5C2.9564 8.16671 2.6846 8.16671 2.4702 8.25551C2.18434 8.37392 1.95722 8.60104 1.83881 8.88691C1.75 9.10131 1.75 9.37311 1.75 9.91671C1.75 10.4603 1.75 10.7321 1.83881 10.9465C1.95722 11.2324 2.18434 11.4595 2.4702 11.5779C2.6846 11.6667 2.9564 11.6667 3.5 11.6667L10.5 11.6667Z" stroke="#C4D3ED" stroke-width="1.4" stroke-linecap="round" stroke-linejoin="round"/>
</g>
</g>
</svg>
