<svg width="14" height="14" viewBox="0 0 14 14" fill="none" xmlns="http://www.w3.org/2000/svg">
<g id="align-horizontal-centre-02">
<g id="Icon">
<path d="M9.33333 5.83337C9.87693 5.83337 10.1487 5.83337 10.3631 5.74457C10.649 5.62616 10.8761 5.39904 10.9945 5.11317C11.0833 4.89877 11.0833 4.62697 11.0833 4.08337C11.0833 3.53978 11.0833 3.26798 10.9945 3.05358C10.8761 2.76771 10.649 2.54059 10.3631 2.42218C10.1487 2.33337 9.87693 2.33337 9.33333 2.33337L4.66667 2.33337C4.12307 2.33337 3.85127 2.33337 3.63687 2.42218C3.351 2.54059 3.12388 2.76771 3.00547 3.05358C2.91667 3.26798 2.91667 3.53978 2.91667 4.08337C2.91667 4.62697 2.91667 4.89877 3.00547 5.11317C3.12388 5.39904 3.351 5.62616 3.63687 5.74457C3.85127 5.83337 4.12307 5.83337 4.66667 5.83337L9.33333 5.83337Z" stroke="#C4D3ED" stroke-width="1.4" stroke-linecap="round" stroke-linejoin="round"/>
<path d="M10.5 11.6667C11.0436 11.6667 11.3154 11.6667 11.5298 11.5779C11.8157 11.4595 12.0428 11.2324 12.1612 10.9465C12.25 10.7321 12.25 10.4603 12.25 9.91671C12.25 9.37311 12.25 9.10131 12.1612 8.88691C12.0428 8.60104 11.8157 8.37392 11.5298 8.25551C11.3154 8.16671 11.0436 8.16671 10.5 8.16671H3.5C2.9564 8.16671 2.6846 8.16671 2.4702 8.25551C2.18434 8.37392 1.95722 8.60104 1.83881 8.88691C1.75 9.10131 1.75 9.37311 1.75 9.91671C1.75 10.4603 1.75 10.7321 1.83881 10.9465C1.95722 11.2324 2.18434 11.4595 2.4702 11.5779C2.6846 11.6667 2.9564 11.6667 3.5 11.6667L10.5 11.6667Z" stroke="#C4D3ED" stroke-width="1.4" stroke-linecap="round" stroke-linejoin="round"/>
</g>
</g>
</svg>
