<svg width="14" height="14" viewBox="0 0 14 14" fill="none" xmlns="http://www.w3.org/2000/svg">
<g id="align-bottom-02">
<g id="Icon">
<path d="M5.8335 10.5V3.5C5.8335 2.9564 5.8335 2.6846 5.74469 2.4702C5.62628 2.18434 5.39916 1.95722 5.11329 1.83881C4.89889 1.75 4.62709 1.75 4.0835 1.75C3.5399 1.75 3.2681 1.75 3.0537 1.83881C2.76783 1.95722 2.54071 2.18434 2.4223 2.4702C2.3335 2.6846 2.3335 2.9564 2.3335 3.5V10.5C2.3335 11.0436 2.3335 11.3154 2.4223 11.5298C2.54071 11.8157 2.76783 12.0428 3.0537 12.1612C3.2681 12.25 3.5399 12.25 4.0835 12.25C4.62709 12.25 4.89889 12.25 5.11329 12.1612C5.39916 12.0428 5.62628 11.8157 5.74469 11.5298C5.8335 11.3154 5.8335 11.0436 5.8335 10.5Z" stroke="#C4D3ED" stroke-width="1.4" stroke-linecap="round" stroke-linejoin="round"/>
<path d="M11.6668 10.5V5.83333C11.6668 5.28973 11.6668 5.01794 11.578 4.80354C11.4596 4.51767 11.2325 4.29055 10.9466 4.17214C10.7322 4.08333 10.4604 4.08333 9.91683 4.08333C9.37323 4.08333 9.10143 4.08333 8.88703 4.17214C8.60117 4.29055 8.37405 4.51767 8.25564 4.80354C8.16683 5.01794 8.16683 5.28973 8.16683 5.83333V10.5C8.16683 11.0436 8.16683 11.3154 8.25564 11.5298C8.37405 11.8157 8.60117 12.0428 8.88703 12.1612C9.10143 12.25 9.37323 12.25 9.91683 12.25C10.4604 12.25 10.7322 12.25 10.9466 12.1612C11.2325 12.0428 11.4596 11.8157 11.578 11.5298C11.6668 11.3154 11.6668 11.0436 11.6668 10.5Z" stroke="#C4D3ED" stroke-width="1.4" stroke-linecap="round" stroke-linejoin="round"/>
</g>
</g>
</svg>
