<svg width="14" height="14" viewBox="0 0 14 14" fill="none" xmlns="http://www.w3.org/2000/svg">
<g id="align-left-02">
<g id="Icon">
<path d="M8.16667 5.83337C8.71026 5.83337 8.98206 5.83337 9.19646 5.74457C9.48233 5.62616 9.70945 5.39904 9.82786 5.11317C9.91667 4.89877 9.91667 4.62697 9.91667 4.08337C9.91667 3.53978 9.91667 3.26798 9.82786 3.05358C9.70945 2.76771 9.48233 2.54059 9.19646 2.42218C8.98206 2.33337 8.71027 2.33337 8.16667 2.33337L3.5 2.33337C2.9564 2.33337 2.6846 2.33337 2.4702 2.42218C2.18434 2.54059 1.95722 2.76771 1.83881 3.05358C1.75 3.26798 1.75 3.53978 1.75 4.08337C1.75 4.62697 1.75 4.89877 1.83881 5.11317C1.95722 5.39904 2.18434 5.62616 2.4702 5.74457C2.6846 5.83337 2.9564 5.83337 3.5 5.83337L8.16667 5.83337Z" stroke="#C4D3ED" stroke-width="1.4" stroke-linecap="round" stroke-linejoin="round"/>
<path d="M10.5 11.6667C11.0436 11.6667 11.3154 11.6667 11.5298 11.5779C11.8157 11.4595 12.0428 11.2324 12.1612 10.9465C12.25 10.7321 12.25 10.4603 12.25 9.91671C12.25 9.37311 12.25 9.10131 12.1612 8.88691C12.0428 8.60104 11.8157 8.37392 11.5298 8.25551C11.3154 8.16671 11.0436 8.16671 10.5 8.16671H3.5C2.9564 8.16671 2.6846 8.16671 2.4702 8.25551C2.18434 8.37392 1.95722 8.60104 1.83881 8.88691C1.75 9.10131 1.75 9.37311 1.75 9.91671C1.75 10.4603 1.75 10.7321 1.83881 10.9465C1.95722 11.2324 2.18434 11.4595 2.4702 11.5779C2.6846 11.6667 2.9564 11.6667 3.5 11.6667L10.5 11.6667Z" stroke="#C4D3ED" stroke-width="1.4" stroke-linecap="round" stroke-linejoin="round"/>
</g>
</g>
</svg>
