<svg width="20" height="20" viewBox="0 0 20 20" fill="none" xmlns="http://www.w3.org/2000/svg">
<g id="tool">
<path id="Vector" d="M17.5 9.58336C17.5029 10.6832 17.2459 11.7683 16.75 12.75C16.162 13.9265 15.2581 14.916 14.1395 15.6078C13.021 16.2995 11.7319 16.6662 10.4167 16.6667C9.31678 16.6696 8.23176 16.4126 7.25 15.9167L2.5 17.5L4.08333 12.75C3.58744 11.7683 3.33047 10.6832 3.33333 9.58336C3.33384 8.26815 3.70051 6.97907 4.39227 5.86048C5.08402 4.7419 6.07355 3.838 7.25 3.25002C8.23176 2.75413 9.31678 2.49716 10.4167 2.50002H10.8333C12.5703 2.59585 14.2109 3.32899 15.441 4.55907C16.671 5.78915 17.4042 7.42973 17.5 9.16669V9.58336Z" stroke="#C4D3ED" stroke-width="2" stroke-linecap="round" stroke-linejoin="round"/>
</g>
</svg>
