<svg width="20" height="21" viewBox="0 0 20 21" fill="none" xmlns="http://www.w3.org/2000/svg">
<path d="M15.8333 3H4.16667C3.24619 3 2.5 3.74619 2.5 4.66667V16.3333C2.5 17.2538 3.24619 18 4.16667 18H15.8333C16.7538 18 17.5 17.2538 17.5 16.3333V4.66667C17.5 3.74619 16.7538 3 15.8333 3Z" stroke="#C4D3ED" stroke-width="1.5" stroke-linecap="round" stroke-linejoin="round"/>
<path d="M7.08325 8.83337C7.77361 8.83337 8.33325 8.27373 8.33325 7.58337C8.33325 6.89302 7.77361 6.33337 7.08325 6.33337C6.3929 6.33337 5.83325 6.89302 5.83325 7.58337C5.83325 8.27373 6.3929 8.83337 7.08325 8.83337Z" stroke="#C4D3ED" stroke-linecap="round" stroke-linejoin="round"/>
<path d="M17.5001 13L13.3334 8.83337L4.16675 18" stroke="#C4D3ED" stroke-width="1.5" stroke-linecap="round" stroke-linejoin="round"/>
</svg>
