<svg width="58" height="20" viewBox="0 0 58 20" fill="none" xmlns="http://www.w3.org/2000/svg">
<g clip-path="url(#clip0_1874_739)">
<path d="M0.903978 15.7538L0.494777 3.54436L8.17356 3.53062L8.24371 5.62367L2.86856 5.63328L2.96735 8.58098L7.92366 8.57211L7.99381 10.6652L3.0375 10.674L3.20761 15.7496L0.903978 15.7538ZM9.94713 15.7376L9.65719 7.08635L11.8561 7.08242L12.1461 15.7337L9.94713 15.7376ZM10.7227 6.07275C10.3272 6.07346 9.98548 5.94615 9.69768 5.69084C9.42151 5.4355 9.27641 5.09853 9.26238 4.67992C9.24835 4.26131 9.37085 3.92386 9.62987 3.66756C9.90052 3.41125 10.2336 3.28274 10.6292 3.28203C11.0364 3.2813 11.3781 3.4086 11.6543 3.66394C11.9304 3.91928 12.0755 4.25625 12.0896 4.67486C12.1036 5.09347 11.9811 5.43092 11.7221 5.68721C11.4631 5.94351 11.13 6.07202 10.7227 6.07275ZM13.6711 11.4399L13.6617 11.1609C13.6313 10.2539 13.7857 9.48029 14.125 8.84011C14.4638 8.18829 14.9243 7.69325 15.5063 7.35498C16.0996 7.00505 16.7511 6.82946 17.4609 6.82819C18.252 6.82677 18.8559 6.96524 19.2724 7.24358C19.689 7.52192 19.9954 7.81209 20.1917 8.11409L20.5058 8.11352L20.4707 7.067L22.6348 7.06313L22.9762 17.2493C22.996 17.8423 22.8373 18.3135 22.5 18.663C22.163 19.0241 21.7037 19.2052 21.1219 19.2062L15.3279 19.2166L15.2636 17.298L20.2897 17.289C20.6155 17.2884 20.7726 17.1137 20.7609 16.7648L20.6855 14.5148L20.3713 14.5154C20.2612 14.7016 20.1048 14.8938 19.902 15.0918C19.6988 15.2783 19.4248 15.4357 19.0801 15.5643C18.7353 15.6928 18.2953 15.7575 17.7602 15.7585C17.0504 15.7598 16.3874 15.5923 15.7712 15.2562C15.1661 14.9084 14.6725 14.4151 14.2904 13.7762C13.9079 13.1257 13.7015 12.3469 13.6711 11.4399ZM18.3241 13.8388C18.9989 13.8375 19.556 13.6214 19.9953 13.1904C20.4346 12.7593 20.6412 12.1543 20.6151 11.3752L20.6093 11.2008C20.5828 10.4101 20.3356 9.80581 19.8679 9.38801C19.4113 8.95856 18.8399 8.74446 18.1534 8.74568C17.4786 8.74689 16.9216 8.96302 16.4822 9.39407C16.0425 9.81349 15.8359 10.4185 15.8624 11.2093L15.8682 11.3837C15.8944 12.1628 16.1415 12.767 16.6097 13.1964C17.0778 13.6258 17.6493 13.84 18.3241 13.8388Z" fill="#6FEEFF"/>
<path d="M24.9438 15.7108L24.5346 3.50135L29.5607 3.49236C30.3286 3.49098 31.0087 3.64675 31.6009 3.95967C32.2044 4.26093 32.6784 4.69035 33.0228 5.24791C33.379 5.80545 33.5699 6.46795 33.5956 7.23539L33.6038 7.47958C33.6291 8.2354 33.4768 8.89851 33.1469 9.46891C32.8282 10.0277 32.3774 10.4645 31.7946 10.7796C31.223 11.0829 30.5649 11.2353 29.8203 11.2366L27.0978 11.2415L27.2474 15.7066L24.9438 15.7108ZM27.0276 9.14844L29.5232 9.14397C30.0701 9.14299 30.5071 8.99104 30.8344 8.68811C31.1616 8.38518 31.3165 7.97208 31.299 7.44882L31.2931 7.2744C31.2756 6.75114 31.0931 6.33865 30.7455 6.03692C30.398 5.7352 29.9508 5.58482 29.404 5.5858L26.9084 5.59027L27.0276 9.14844ZM35.197 15.6924L34.907 7.04117L37.0711 7.0373L37.1038 8.01405L37.4179 8.01349C37.5342 7.66442 37.7351 7.40823 38.0205 7.24492C38.3175 7.08159 38.6638 6.99956 39.0594 6.99886L40.1065 6.99698L40.172 8.95049L39.09 8.95242C38.5315 8.95342 38.077 9.10541 37.7265 9.40838C37.3755 9.69973 37.2104 10.1535 37.2311 10.7698L37.3959 15.6885L35.197 15.6924ZM45.5873 15.918C44.7264 15.9196 43.9468 15.7465 43.2487 15.3989C42.5506 15.0513 41.9926 14.5465 41.5748 13.8844C41.1571 13.2223 40.9326 12.4261 40.9014 11.4959L40.892 11.2168C40.8609 10.2866 41.032 9.48968 41.4053 8.82618C41.7787 8.16268 42.3027 7.65589 42.9775 7.30582C43.6522 6.95575 44.4201 6.77995 45.281 6.77841C46.142 6.77687 46.9215 6.9499 47.6196 7.29752C48.3178 7.64513 48.8757 8.14998 49.2935 8.81207C49.7113 9.47415 49.9358 10.2703 49.967 11.2006L49.9763 11.4796C50.0075 12.4099 49.8364 13.2067 49.463 13.8702C49.0897 14.5338 48.5656 15.0405 47.8909 15.3906C47.2161 15.7407 46.4483 15.9165 45.5873 15.918ZM45.5219 13.9645C46.1967 13.9633 46.7479 13.7472 47.1756 13.3162C47.6029 12.8735 47.8029 12.2452 47.7756 11.4312L47.7698 11.2568C47.7425 10.4429 47.5006 9.82116 47.0441 9.39171C46.5988 8.95062 46.0329 8.73068 45.3465 8.73191C44.6717 8.73312 44.1206 8.95505 43.6933 9.39771C43.2656 9.82873 43.0654 10.4512 43.0927 11.2652L43.0986 11.4396C43.1258 12.2536 43.3679 12.8811 43.8249 13.3222C44.2814 13.7516 44.8471 13.9657 45.5219 13.9645Z" fill="#56FFA6"/>
<path d="M47.7549 5.06294C48.1468 3.16126 49.8305 1.73143 51.8483 1.73143C52.3059 1.73143 52.7464 1.80499 53.1585 1.94093L55.0993 0.000216487L57.7859 2.68693L55.8314 4.64139C55.959 5.04174 56.0277 5.46829 56.0277 5.91089C56.0277 7.85574 54.6993 9.49032 52.9004 9.9568L45.769 11.9901L47.7549 5.06294Z" fill="white"/>
<path d="M55.0993 1.07487L53.6959 2.47826L53.365 2.8092L52.9205 2.66261C52.5643 2.54278 52.2431 2.48875 51.8483 2.49133C50.1983 2.49133 48.8197 3.66067 48.4991 5.21632L48.4933 5.24459L48.4854 5.27235L46.8766 10.8841L52.692 9.22602L52.7008 9.22352L52.7096 9.22122C54.1817 8.83951 55.2678 7.50108 55.2678 5.91089C55.2703 5.52898 55.2197 5.21803 55.1073 4.87197L54.967 4.43117L55.2941 4.10407L56.7113 2.68693L55.0993 1.07487ZM47.7549 5.06294C48.1468 3.16126 49.8305 1.73143 51.8483 1.73143C52.3059 1.73143 52.7464 1.80499 53.1585 1.94093L54.562 0.537544L55.0993 0.000217441L55.6366 0.537544L57.2486 2.1496L57.7859 2.68693L57.2486 3.22426L55.8314 4.64139C55.959 5.04175 56.0277 5.46829 56.0277 5.91089C56.0277 7.85574 54.6993 9.49032 52.9004 9.9568L46.6299 11.7447L45.769 11.9901L46.0157 11.1296L47.7549 5.06294Z" fill="black"/>
<path d="M46.7977 11.4989L46.529 11.7676L45.9917 11.2302L46.2604 10.9616L51.5797 5.64226L51.8484 5.3736L52.3857 5.91093L52.117 6.1796L46.7977 11.4989Z" fill="black"/>
<path d="M52.9882 5.91068C52.9882 5.28116 52.4779 4.77083 51.8484 4.77083C51.2188 4.77083 50.7085 5.28116 50.7085 5.91068C50.7085 6.54021 51.2188 7.05054 51.8484 7.05054C52.4779 7.05054 52.9882 6.54021 52.9882 5.91068Z" fill="black"/>
</g>
<defs>
<clipPath id="clip0_1874_739">
<rect width="58" height="20" fill="white"/>
</clipPath>
</defs>
</svg>
