<svg width="20" height="21" viewBox="0 0 20 21" fill="none" xmlns="http://www.w3.org/2000/svg">
<path d="M8.5749 3.71672L1.51656 15.5C1.37104 15.7521 1.29403 16.0378 1.29322 16.3288C1.2924 16.6198 1.3678 16.906 1.51192 17.1588C1.65603 17.4116 1.86383 17.6223 2.11465 17.7699C2.36547 17.9175 2.65056 17.9968 2.94156 18H17.0582C17.3492 17.9968 17.6343 17.9175 17.8851 17.7699C18.136 17.6223 18.3438 17.4116 18.4879 17.1588C18.632 16.906 18.7074 16.6198 18.7066 16.3288C18.7058 16.0378 18.6288 15.7521 18.4832 15.5L11.4249 3.71672C11.2763 3.4718 11.0672 3.26931 10.8176 3.12879C10.568 2.98826 10.2863 2.91443 9.9999 2.91443C9.71345 2.91443 9.43184 2.98826 9.18223 3.12879C8.93263 3.26931 8.72345 3.4718 8.5749 3.71672V3.71672Z" stroke="#C4D3ED" stroke-width="1.5" stroke-linecap="round" stroke-linejoin="round"/>
</svg>
