<!DOCTYPE svg PUBLIC "-//W3C//DTD SVG 1.1//EN" "http://www.w3.org/Graphics/SVG/1.1/DTD/svg11.dtd">

<!-- Uploaded to: SVG Repo, www.svgrepo.com, Transformed by: SVG Repo Mixer Tools -->
<svg fill="#C4D3ED" height="800px" width="800px" version="1.1" id="Layer_1" xmlns="http://www.w3.org/2000/svg" xmlns:xlink="http://www.w3.org/1999/xlink" viewBox="0 0 512 512" xml:space="preserve">

<g id="SVGRepo_bgCarrier" stroke-width="0"/>

<g id="SVGRepo_tracerCarrier" stroke-linecap="round" stroke-linejoin="round"/>

<g id="SVGRepo_iconCarrier"> <g> <g> <g> <path d="M512,256v-85.333h-85.333V192H320v-42.667H21.333V192h277.333c-11.797,0-21.333,9.557-21.333,21.333v21.333h-256V256H0 v85.333h85.333V320H192v106.667h-21.333V512H256v-21.333h170.667V512H512v-85.333h-21.333V256H512z M448,426.667h-21.333V448H256 v-21.333h-21.333V320H256v21.333h85.333V256H320v-21.333h106.667V256H448V426.667z"/> <polygon points="21.333,106.667 320,106.667 320,85.333 341.333,85.333 341.333,0 256,0 256,21.333 85.333,21.333 85.333,0 0,0 0,85.333 21.333,85.333 "/> </g> </g> </g> </g>

</svg>